<svg width="169" height="46" viewBox="0 0 169 46" fill="none" xmlns="http://www.w3.org/2000/svg">
<path d="M43.4062 35V13.1818H58.7472V17.9545H49.3295V21.7045H57.8097V26.4773H49.3295V35H43.4062ZM61.011 35V18.6364H66.8917V35H61.011ZM63.9513 16.9318C63.1559 16.9318 62.4741 16.669 61.9059 16.1435C61.3377 15.6179 61.0536 14.9858 61.0536 14.2472C61.0536 13.5085 61.3377 12.8764 61.9059 12.3509C62.4741 11.8253 63.1559 11.5625 63.9513 11.5625C64.7539 11.5625 65.4357 11.8253 65.9968 12.3509C66.565 12.8764 66.8491 13.5085 66.8491 14.2472C66.8491 14.9858 66.565 15.6179 65.9968 16.1435C65.4357 16.669 64.7539 16.9318 63.9513 16.9318ZM75.7686 25.7955V35H69.888V18.6364H75.4703V21.7472H75.6408C75.9959 20.7102 76.6209 19.897 77.5158 19.3075C78.4178 18.718 79.4689 18.4233 80.6692 18.4233C81.8269 18.4233 82.8319 18.6896 83.6841 19.2223C84.5435 19.7479 85.2076 20.4723 85.6763 21.3956C86.1522 22.3189 86.3865 23.3736 86.3794 24.5597V35H80.4988V25.7955C80.5059 24.9858 80.2999 24.3501 79.8809 23.8885C79.4689 23.4268 78.8936 23.196 78.155 23.196C77.6721 23.196 77.2495 23.3026 76.8873 23.5156C76.5321 23.7216 76.2587 24.0199 76.0669 24.4105C75.8752 24.794 75.7757 25.2557 75.7686 25.7955Z" fill="#CDB6FF"/>
<path d="M93.85 12.845H86.43L86.85 10.5H104.35L103.93 12.845H96.51L92.59 35H89.93L93.85 12.845ZM103.776 17.57H106.296L105.736 20.685L109.411 17.57H113.926L113.506 19.88H109.691L105.281 23.625L103.286 35H100.696L103.776 17.57ZM113.274 32.06L114.044 27.65L117.404 24.85H126.714L127.274 21.525L125.839 19.81H119.889L117.824 21.525L117.579 22.96H114.989L115.374 20.755L119.119 17.57H127.274L129.969 20.825L127.484 35H124.999L125.524 31.92L121.779 35H115.724L113.274 32.06ZM121.639 32.76L125.944 29.225L126.294 27.09H118.104L116.494 28.455L115.969 31.395L117.124 32.76H121.639ZM132.762 31.745L134.757 20.51L138.222 17.57H146.692L149.492 20.965L149.177 22.925H146.587L146.797 21.595L145.362 19.88H139.202L137.137 21.595L135.492 30.975L136.927 32.69H143.087L145.152 30.975L145.397 29.645H147.987L147.532 32.025L144.032 35H135.457L132.762 31.745ZM155.763 10.01H158.353L155.623 24.78H159.508L165.913 17.57H168.993L161.608 25.97L166.263 35H163.533L159.473 27.09H155.238L153.838 35H151.248L155.763 10.01Z" fill="url(#paint0_linear_208_22)"/>
<path d="M4.22461 33.9454V26.9656L10.0262 21.3711V33.9454H4.22461Z" stroke="url(#paint1_linear_208_22)"/>
<path d="M29.9738 33.9453V20.1534L35.7754 14.1446V33.9453H29.9738Z" stroke="url(#paint2_linear_208_22)"/>
<path d="M12.8077 33.9454V24.7301L18.4474 29.8883V33.9454H12.8077Z" stroke="url(#paint3_linear_208_22)"/>
<path d="M21.3907 34.0263V29.8015L27.0304 24.4369V34.0263H21.3907Z" stroke="url(#paint4_linear_208_22)"/>
<path d="M36.8773 4.03227C37.2963 4.02225 37.7153 4.01515 38.1344 4.00958C38.3126 4.005 38.3126 4.005 38.4945 4.00033C38.9317 3.99776 39.2796 4.00537 39.674 4.20477C40.0453 4.59481 40.0001 4.86931 39.9964 5.40136C39.9961 5.58976 39.9957 5.77815 39.9954 5.97225C39.9918 6.17589 39.9881 6.37952 39.9841 6.58315C39.9819 6.79022 39.9797 6.9973 39.9776 7.20438C39.9608 8.44998 39.9128 9.69295 39.8143 10.935C39.7994 11.1344 39.7994 11.1344 39.7841 11.3378C39.7207 12.0095 39.6433 12.5046 39.2156 13.0528C38.8716 13.3138 38.6894 13.3396 38.2567 13.3315C37.5951 13.1408 37.2637 12.7522 36.8029 12.2575C36.7181 12.1695 36.6333 12.0815 36.546 11.9908C36.3381 11.7745 36.1324 11.556 35.9272 11.3371C35.428 11.551 35.1073 11.8363 34.7258 12.22C34.5382 12.4077 34.5382 12.4077 34.3468 12.5991C34.2094 12.738 34.0719 12.877 33.9344 13.016C33.7889 13.1621 33.6432 13.3082 33.4975 13.4542C33.1841 13.7685 32.8711 14.0832 32.5585 14.3983C32.0642 14.8965 31.5688 15.3936 31.0732 15.8905C30.0215 16.9454 28.9709 18.0016 27.9205 19.0578C26.7865 20.1981 25.6523 21.3382 24.5167 22.4769C24.0241 22.971 23.5321 23.4657 23.0407 23.961C22.735 24.2689 22.4286 24.5762 22.1221 24.8833C21.9801 25.0259 21.8383 25.1687 21.6968 25.3118C21.5036 25.5071 21.3094 25.7014 21.1152 25.8956C21.0068 26.0046 20.8984 26.1136 20.7868 26.226C20.2232 26.7252 19.7239 26.8769 18.9792 26.8449C18.5699 26.7678 18.4196 26.657 18.1162 26.3766C18.0172 26.2853 17.9183 26.1941 17.8163 26.1C17.222 25.5249 16.6365 24.9413 16.0559 24.3523C15.8231 24.1163 15.5896 23.8809 15.356 23.6457C14.6928 22.9777 14.0302 22.309 13.3691 21.639C12.9626 21.2272 12.5551 20.8164 12.147 20.4063C11.9922 20.2504 11.8378 20.0941 11.6839 19.9373C11.4694 19.7191 11.2536 19.5021 11.0375 19.2855C10.9152 19.1618 10.7929 19.0382 10.6669 18.9107C10.2654 18.5572 10.2654 18.5572 9.76254 18.4859C9.43882 18.707 9.43882 18.707 9.1292 19.0426C9.00514 19.1677 8.88108 19.2927 8.75326 19.4215C8.61904 19.5604 8.48484 19.6992 8.35065 19.838C8.21198 19.9788 8.07312 20.1193 7.93408 20.2597C7.56796 20.6302 7.2039 21.0027 6.84036 21.3757C6.25896 21.9717 5.6748 22.565 5.09005 23.1577C4.88624 23.365 4.6835 23.5732 4.48087 23.7816C4.29478 23.9712 4.29478 23.9712 4.10493 24.1646C3.94179 24.332 3.94179 24.332 3.77535 24.5027C3.19464 25.0269 2.70963 25.1366 1.94354 25.1164C1.27371 25.0078 0.84435 24.6311 0.423298 24.1178C0.00168988 23.4751 -0.0560865 22.9613 0.0401669 22.2033C0.527484 21.3025 1.29205 20.6287 2.01502 19.9157C2.14044 19.7903 2.26586 19.665 2.39508 19.5359C3.00147 18.9336 3.61396 18.3528 4.26952 17.8045C4.53203 17.5762 4.753 17.3253 4.97284 17.0562C5.28624 16.6868 5.59943 16.3627 5.97368 16.0553C6.34474 15.7504 6.65523 15.4301 6.96557 15.0634C7.39385 14.5588 7.85598 14.1283 8.36182 13.7024C8.62101 13.4897 8.62101 13.4897 8.82817 13.2466C9.10716 13.0003 9.29692 12.9696 9.66425 12.9277C9.82266 12.9062 9.82266 12.9062 9.98427 12.8842C10.8528 12.9479 11.4431 13.5284 12.0247 14.1225C12.142 14.2397 12.142 14.2397 12.2617 14.3593C12.518 14.6159 12.7728 14.874 13.0275 15.1321C13.2057 15.3111 13.384 15.49 13.5624 15.6688C14.0302 16.1382 14.4966 16.6089 14.9628 17.0798C15.4393 17.5607 15.9171 18.0404 16.3947 18.5203C17.3307 19.4608 18.2653 20.4027 19.199 21.3454C19.9878 20.6881 20.718 19.989 21.4422 19.2615C21.5622 19.1414 21.6823 19.0214 21.806 18.8977C22.1323 18.5713 22.4583 18.2445 22.7842 17.9177C23.1259 17.5751 23.468 17.2329 23.81 16.8907C24.4564 16.2439 25.1024 15.5967 25.7483 14.9494C26.4842 14.2119 27.2204 13.4749 27.9567 12.7378C29.4702 11.2229 30.9831 9.70743 32.4958 8.19163C32.1993 7.54173 31.7216 7.1314 31.1947 6.66609C30.7985 6.29311 30.6386 6.05304 30.5008 5.52144C30.4941 5.04616 30.4941 5.04616 30.7532 4.6351C31.2666 4.13639 31.6855 4.15967 32.369 4.14306C32.523 4.13856 32.523 4.13856 32.6801 4.13398C33.0148 4.12448 33.3495 4.11607 33.6842 4.10787C33.7974 4.10499 33.9105 4.1021 34.027 4.09913C34.7022 4.08201 35.3774 4.0665 36.0526 4.05202C36.3275 4.04595 36.6024 4.03915 36.8773 4.03227Z" fill="url(#paint5_linear_208_22)"/>
<defs>
<linearGradient id="paint0_linear_208_22" x1="52.7838" y1="35.3846" x2="160.865" y2="35.3846" gradientUnits="userSpaceOnUse">
<stop stop-color="#4754EB"/>
<stop offset="1" stop-color="#7A3DEA"/>
</linearGradient>
<linearGradient id="paint1_linear_208_22" x1="7.12542" y1="20.1944" x2="7.12542" y2="34.4454" gradientUnits="userSpaceOnUse">
<stop stop-color="#5550EC"/>
<stop offset="1" stop-color="#7841EC"/>
</linearGradient>
<linearGradient id="paint2_linear_208_22" x1="32.8746" y1="12.9069" x2="32.8746" y2="34.4453" gradientUnits="userSpaceOnUse">
<stop stop-color="#5550EC"/>
<stop offset="1" stop-color="#7841EC"/>
</linearGradient>
<linearGradient id="paint3_linear_208_22" x1="15.6276" y1="23.5952" x2="15.6276" y2="34.4454" gradientUnits="userSpaceOnUse">
<stop stop-color="#5550EC"/>
<stop offset="1" stop-color="#7841EC"/>
</linearGradient>
<linearGradient id="paint4_linear_208_22" x1="24.2106" y1="23.2712" x2="24.2106" y2="34.5263" gradientUnits="userSpaceOnUse">
<stop stop-color="#5550EC"/>
<stop offset="1" stop-color="#7841EC"/>
</linearGradient>
<linearGradient id="paint5_linear_208_22" x1="-7.5" y1="24.5" x2="33" y2="11" gradientUnits="userSpaceOnUse">
<stop stop-color="#4556EB"/>
<stop offset="1" stop-color="#7740EB"/>
</linearGradient>
</defs>
</svg>
