<svg width="40" height="31" viewBox="0 0 40 31" fill="none" xmlns="http://www.w3.org/2000/svg">
<path d="M4.22461 29.9454V22.9656L10.0262 17.3711V29.9454H4.22461Z" stroke="#D2D1FF"/>
<path d="M29.9738 29.9453V16.1534L35.7754 10.1446V29.9453H29.9738Z" stroke="#D2D1FF"/>
<path d="M12.8077 29.9454V20.7301L18.4474 25.8883V29.9454H12.8077Z" stroke="#D2D1FF"/>
<path d="M21.3907 30.0263V25.8015L27.0304 20.4369V30.0263H21.3907Z" stroke="#D2D1FF"/>
<path d="M36.8773 0.0322679C37.2963 0.0222487 37.7153 0.0151454 38.1344 0.00957884C38.3126 0.00500001 38.3126 0.00500001 38.4945 0.000328677C38.9317 -0.00223503 39.2796 0.00536643 39.674 0.204775C40.0453 0.59481 40.0001 0.86931 39.9964 1.40136C39.9961 1.58976 39.9957 1.77815 39.9954 1.97225C39.9918 2.17589 39.9881 2.37952 39.9841 2.58315C39.9819 2.79022 39.9797 2.9973 39.9776 3.20438C39.9608 4.44998 39.9128 5.69295 39.8143 6.93499C39.7994 7.13438 39.7994 7.13438 39.7841 7.33781C39.7207 8.00946 39.6433 8.5046 39.2156 9.05282C38.8716 9.31378 38.6894 9.33963 38.2567 9.33151C37.5951 9.14081 37.2637 8.75224 36.8029 8.25752C36.7181 8.16951 36.6333 8.0815 36.546 7.99083C36.3381 7.77451 36.1324 7.55602 35.9272 7.33711C35.428 7.55098 35.1073 7.83633 34.7258 8.22003C34.5382 8.40767 34.5382 8.40767 34.3468 8.5991C34.2094 8.73804 34.0719 8.877 33.9344 9.01596C33.7889 9.1621 33.6432 9.30817 33.4975 9.45418C33.1841 9.76849 32.8711 10.0832 32.5585 10.3983C32.0642 10.8965 31.5688 11.3936 31.0732 11.8905C30.0215 12.9454 28.9709 14.0016 27.9205 15.0578C26.7865 16.1981 25.6523 17.3382 24.5167 18.4769C24.0241 18.971 23.5321 19.4657 23.0407 19.961C22.735 20.2689 22.4286 20.5762 22.1221 20.8833C21.9801 21.0259 21.8383 21.1687 21.6968 21.3118C21.5036 21.5071 21.3094 21.7014 21.1152 21.8956C21.0068 22.0046 20.8984 22.1136 20.7868 22.226C20.2232 22.7252 19.7239 22.8769 18.9792 22.8449C18.5699 22.7678 18.4196 22.657 18.1162 22.3766C18.0172 22.2853 17.9183 22.1941 17.8163 22.1C17.222 21.5249 16.6365 20.9413 16.0559 20.3523C15.8231 20.1163 15.5896 19.8809 15.356 19.6457C14.6928 18.9777 14.0302 18.309 13.3691 17.639C12.9626 17.2272 12.5551 16.8164 12.147 16.4063C11.9922 16.2504 11.8378 16.0941 11.6839 15.9373C11.4694 15.7191 11.2536 15.5021 11.0375 15.2855C10.9152 15.1618 10.7929 15.0382 10.6669 14.9107C10.2654 14.5572 10.2654 14.5572 9.76254 14.4859C9.43882 14.707 9.43882 14.707 9.1292 15.0426C9.00514 15.1677 8.88108 15.2927 8.75326 15.4215C8.61904 15.5604 8.48484 15.6992 8.35065 15.838C8.21198 15.9788 8.07312 16.1193 7.93408 16.2597C7.56796 16.6302 7.2039 17.0027 6.84036 17.3757C6.25896 17.9717 5.6748 18.565 5.09005 19.1577C4.88624 19.365 4.6835 19.5732 4.48087 19.7816C4.29478 19.9712 4.29478 19.9712 4.10493 20.1646C3.94179 20.332 3.94179 20.332 3.77535 20.5027C3.19464 21.0269 2.70963 21.1366 1.94354 21.1164C1.27371 21.0078 0.84435 20.6311 0.423298 20.1178C0.00168988 19.4751 -0.0560865 18.9613 0.0401669 18.2033C0.527484 17.3025 1.29205 16.6287 2.01502 15.9157C2.14044 15.7903 2.26586 15.665 2.39508 15.5359C3.00147 14.9336 3.61396 14.3528 4.26952 13.8045C4.53203 13.5762 4.753 13.3253 4.97284 13.0562C5.28624 12.6868 5.59943 12.3627 5.97368 12.0553C6.34474 11.7504 6.65523 11.4301 6.96557 11.0634C7.39385 10.5588 7.85598 10.1283 8.36182 9.70236C8.62101 9.4897 8.62101 9.4897 8.82817 9.24662C9.10716 9.00029 9.29692 8.96959 9.66425 8.92772C9.82266 8.90615 9.82266 8.90615 9.98427 8.88415C10.8528 8.94788 11.4431 9.52843 12.0247 10.1225C12.142 10.2397 12.142 10.2397 12.2617 10.3593C12.518 10.6159 12.7728 10.874 13.0275 11.1321C13.2057 11.3111 13.384 11.49 13.5624 11.6688C14.0302 12.1382 14.4966 12.6089 14.9628 13.0798C15.4393 13.5607 15.9171 14.0404 16.3947 14.5203C17.3307 15.4608 18.2653 16.4027 19.199 17.3454C19.9878 16.6881 20.718 15.989 21.4422 15.2615C21.5622 15.1414 21.6823 15.0214 21.806 14.8977C22.1323 14.5713 22.4583 14.2445 22.7842 13.9177C23.1259 13.5751 23.468 13.2329 23.81 12.8907C24.4564 12.2439 25.1024 11.5967 25.7483 10.9494C26.4842 10.2119 27.2204 9.47486 27.9567 8.73783C29.4702 7.22288 30.9831 5.70743 32.4958 4.19163C32.1993 3.54173 31.7216 3.1314 31.1947 2.66609C30.7985 2.29311 30.6386 2.05304 30.5008 1.52144C30.4941 1.04616 30.4941 1.04616 30.7532 0.6351C31.2666 0.136386 31.6855 0.159667 32.369 0.14306C32.523 0.138565 32.523 0.138565 32.6801 0.133978C33.0148 0.124478 33.3495 0.116067 33.6842 0.107875C33.7974 0.104989 33.9105 0.102104 34.027 0.0991309C34.7022 0.0820061 35.3774 0.066495 36.0526 0.0520162C36.3275 0.0459531 36.6024 0.0391532 36.8773 0.0322679Z" fill="url(#paint0_linear_207_61)"/>
<defs>
<linearGradient id="paint0_linear_207_61" x1="-7.5" y1="20.5" x2="33" y2="7" gradientUnits="userSpaceOnUse">
<stop stop-color="#4556EB"/>
<stop offset="1" stop-color="#7740EB"/>
</linearGradient>
</defs>
</svg>
